<svg style="display: none" xmlns="http://www.w3.org/2000/svg">
    <symbol id="close" fill="none" xmlns="http://www.w3.org/2000/svg">
        <rect x="1.41406" width="26" height="2" transform="rotate(45 1.41406 0)" fill="currentColor"/>
        <rect x="18.3848" width="2" height="26" transform="rotate(45 18.3848 0)" fill="currentColor"/>
    </symbol>

    <symbol id="clearInput" viewBox="0 0 24 24" fill="none" xmlns="http://www.w3.org/2000/svg">
        <rect x="5.39648" y="17.0889" width="16.5355" height="1.27196" transform="rotate(-45 5.39648 17.0889)" fill="currentColor"/>
        <rect x="5.39648" y="6.2959" width="1.27196" height="16.5355" transform="rotate(-45 5.39648 6.2959)" fill="currentColor"/>
    </symbol>

    <symbol id="arrowRight" viewBox="0 0 24 24" fill="none" xmlns="http://www.w3.org/2000/svg">
        <path d="M8.58984 16.59L13.1698 12L8.58984 7.41L9.99984 6L15.9998 12L9.99984 18L8.58984 16.59Z" fill="currentColor"/>
    </symbol>

    <symbol id="enter" fill="none" viewBox="0 0 24 24" xmlns="http://www.w3.org/2000/svg">
        <path d="M10.09 15.59L11.5 17L16.5 12L11.5 7L10.09 8.41L12.67 11H3V13H12.67L10.09 15.59ZM19 3H5C3.89 3 3 3.9 3 5V9H5V5H19V19H5V15H3V19C3 20.1 3.89 21 5 21H19C20.1 21 21 20.1 21 19V5C21 3.9 20.1 3 19 3Z" fill="currentColor"/>
    </symbol>

    <symbol id="edit" viewBox="0 0 26 26" fill="none" xmlns="http://www.w3.org/2000/svg">
        <rect x="2.5" y="2.5" width="21" height="21" rx="3.5" stroke="currentColor"/>
        <path d="M10.8156 18.0128L6.57299 19.427L7.9872 15.1843L16.389 6.78251C17.0379 6.13363 17.8766 6.14881 18.2746 6.5468L19.4531 7.72532C19.8511 8.12331 19.8663 8.96205 19.2174 9.61093L10.8156 18.0128Z" stroke="currentColor"/>
        <line x1="14.9749" y1="7.48959" x2="18.5104" y2="11.0251" stroke="currentColor"/>
        <line x1="7.90385" y1="14.5607" x2="11.4394" y2="18.0962" stroke="currentColor"/>
    </symbol>

    <symbol id="unlock" viewBox="0 0 16 21" fill="none" xmlns="http://www.w3.org/2000/svg">
        <path d="M8 16C9.1 16 10 15.1 10 14C10 12.9 9.1 12 8 12C6.9 12 6 12.9 6 14C6 15.1 6.9 16 8 16ZM14 7H13V5C13 2.24 10.76 0 8 0C5.24 0 3 2.24 3 5H4.9C4.9 3.29 6.29 1.9 8 1.9C9.71 1.9 11.1 3.29 11.1 5V7H2C0.9 7 0 7.9 0 9V19C0 20.1 0.9 21 2 21H14C15.1 21 16 20.1 16 19V9C16 7.9 15.1 7 14 7ZM14 19H2V9H14V19Z" fill="currentColor"/>
    </symbol>

    <symbol id="folder" viewBox="0 0 20 16" fill="none" xmlns="http://www.w3.org/2000/svg">
        <path d="M18 2H10L8 0H2C0.9 0 0.00999999 0.9 0.00999999 2L0 14C0 15.1 0.9 16 2 16H18C19.1 16 20 15.1 20 14V4C20 2.9 19.1 2 18 2ZM18 14H2V4H18V14Z" fill="currentColor"/>
    </symbol>

    <symbol id="done" viewBox="0 0 20 20" fill="none" xmlns="http://www.w3.org/2000/svg">
        <path d="M14.59 5.58L8 12.17L4.41 8.59L3 10L8 15L16 7L14.59 5.58ZM10 0C4.48 0 0 4.48 0 10C0 15.52 4.48 20 10 20C15.52 20 20 15.52 20 10C20 4.48 15.52 0 10 0ZM10 18C5.58 18 2 14.42 2 10C2 5.58 5.58 2 10 2C14.42 2 18 5.58 18 10C18 14.42 14.42 18 10 18Z" fill="currentColor"/>
    </symbol>

    <symbol id="search" viewBox="0 0 24 24" fill="none" xmlns="http://www.w3.org/2000/svg">
        <path d="M15.5 14H14.71L14.43 13.73C15.41 12.59 16 11.11 16 9.5C16 5.91 13.09 3 9.5 3C5.91 3 3 5.91 3 9.5C3 13.09 5.91 16 9.5 16C11.11 16 12.59 15.41 13.73 14.43L14 14.71V15.5L19 20.49L20.49 19L15.5 14V14ZM9.5 14C7.01 14 5 11.99 5 9.5C5 7.01 7.01 5 9.5 5C11.99 5 14 7.01 14 9.5C14 11.99 11.99 14 9.5 14Z" fill="currentColor"/>
    </symbol>

    <symbol id="arrow" viewBox="0 0 8 12" fill="none" xmlns="http://www.w3.org/2000/svg">
        <path opacity="0.5" d="M7 1L2 6L7 11" stroke="currentColor" stroke-width="2"/>
    </symbol>
</svg>